<?xml version="1.0" encoding="utf-8"?>
<!-- Generator: Adobe Illustrator 25.3.1, SVG Export Plug-In . SVG Version: 6.00 Build 0)  -->
<svg version="1.1" id="レイヤー_1" xmlns="http://www.w3.org/2000/svg" xmlns:xlink="http://www.w3.org/1999/xlink" x="0px"
	 y="0px" width="91.96px" height="87.11px" viewBox="0 0 91.96 87.11" style="enable-background:new 0 0 91.96 87.11;"
	 xml:space="preserve">
<style type="text/css">
	.st0{fill:#009844;stroke:#009335;stroke-width:0.7263;stroke-miterlimit:10;}
	.st1{fill:#DD8237;stroke:#DD8237;stroke-width:0.7263;stroke-miterlimit:10;}
	.st2{fill:#040000;stroke:#040000;stroke-width:1.9369;stroke-miterlimit:10;}
	.st3{fill:#040000;stroke:#040000;stroke-width:0.9685;stroke-miterlimit:10;}
	.st4{fill:none;stroke:#040000;stroke-width:3.8738;stroke-miterlimit:10;}
</style>
<g>
	<path class="st0" d="M59.44,56.52c-1.44-0.61-3.63,1.35-4.9,4.37c-0.59,1.39-0.57,2.88-0.38,4.1c-0.71-1-1.74-2.08-3.13-2.66
		c-3.02-1.27-5.95-1.14-6.56,0.3c-0.61,1.44,1.35,3.63,4.37,4.9c2.29,0.96,4.88,0.29,5.99-0.09c0,0,0,0,0,0s0.04-0.02,0.1-0.04
		c0.01,0,0.03-0.01,0.04-0.01l-0.14,0.05l2.27,6.1l0.57-0.21l-2.27-6.11c0,0-0.01-0.01-0.01-0.03c1.07-0.51,3.39-1.84,4.35-4.12
		C61.01,60.06,60.88,57.12,59.44,56.52z"/>
	<path class="st1" d="M58.2,16.2l18.08,29.68c0.65,1.06,2.06,1.35,3.07,0.64l0.09-0.06c0.93-0.65,1.18-1.91,0.59-2.88L61.84,13.94
		c-0.3-0.49-0.79-0.84-1.36-0.96l0,0C58.64,12.58,57.22,14.58,58.2,16.2z"/>
	<path class="st1" d="M47.59,14.46l25.76,44.02c0.64,1.09,2.11,1.33,3.07,0.5v0c0.72-0.63,0.9-1.69,0.42-2.52L51.38,12.51
		c-0.28-0.48-0.73-0.82-1.27-0.95c-0.11-0.03-0.22-0.05-0.34-0.08C48.06,11.09,46.7,12.94,47.59,14.46z"/>
	<path class="st2" d="M20.38,60.61c-0.11-0.12-0.13-0.28-0.05-0.42c1.73-2.93,20.1-33.96,22.34-36.84c1.18-1.52,4.25-1.41,5.04,0.1
		c2.03,3.91,20.2,37.32,21.81,40.28c0.07,0.13,0.05,0.28-0.04,0.4l-1.68,2.09c-0.16,0.2-0.48,0.17-0.6-0.05L46.55,27.94
		c-0.65-1.2-2.34-1.25-3.06-0.09L22.27,62.02c-0.13,0.21-0.42,0.23-0.58,0.05L20.38,60.61z"/>
	<path class="st3" d="M17.19,46.74h59.79c1.38,0,2.39,1.3,2.04,2.64v0c-0.24,0.93-1.08,1.58-2.04,1.58H17.19
		c-0.98,0-1.83-0.68-2.05-1.64l0,0C14.84,48,15.84,46.74,17.19,46.74z"/>
	<circle class="st4" cx="45.98" cy="43.56" r="33.49"/>
</g>
</svg>
